<svg height="722" viewBox="0 0 1260 722" width="1260" xmlns="http://www.w3.org/2000/svg"><g fill="none" fill-rule="evenodd"><path d="m0 0h1260v722h-1260z" fill="#fff"/><g transform="translate(165 82)"><rect fill="#fff" height="559" rx="8" stroke="#ff4d67" stroke-width="4" width="410" x="2" y="2"/><rect fill="#ff4d67" height="117" rx="8" width="268" x="35" y="34"/><rect fill="#ff4d67" height="117" rx="8" width="268" x="111" y="180"/><rect fill="#ff4d67" height="117" rx="8" width="268" x="35" y="326"/><g fill-rule="nonzero"><path d="m131.917502 108c6.552002 0 10.276502-2.574 10.276502-7.819501 0-2.9445008-2.0475-5.2845011-4.543501-6.1230013 2.281501-.8385001 3.958501-3.0420005 3.958501-5.7915009 0-5.2065009-3.997501-7.5660013-10.354502-7.5660013h-11.154001v27.3000045zm-.7995-16.1265026h-5.577001v-6.3765011h5.557501c2.691001 0 4.836001.5850001 4.836001 3.1590005 0 2.6520005-2.106 3.2175006-4.816501 3.2175006zm.5265 11.3490016-6.103501-.0195v-6.5520009h6.103501c3.003001 0 4.894501.7020002 4.894501 3.2565006 0 2.6130003-1.8915 3.3150003-4.894501 3.3150003zm23.8095 5.265001c4.719001 0 8.931001-2.574 8.931001-8.5410013v-10.8420018h-5.07v10.3935017c0 3.0225004-1.677001 4.2510004-3.861001 4.2510004-2.2035 0-3.861001-1.2285-3.861001-4.2510004v-10.3935017h-5.089501v10.8420018c0 5.9670013 4.212001 8.5410013 8.950502 8.5410013zm23.01 0c3.159 0 5.811001-1.2675 7.585501-3.549001l-3.627-3.1005c-1.072501 1.17-2.476501 1.911-4.114501 1.911-2.632501 0-4.719001-2.0475-4.719001-5.2065006 0-3.1395005 2.106-5.2065008 4.738501-5.2065008 1.6575 0 2.886.6630001 4.036501 1.8915003l3.666-3.0615005c-1.7355-2.2815004-4.407001-3.5685006-7.566001-3.5685006-6.025501 0-10.062002 4.2315007-10.062002 9.9450016 0 5.7330006 4.036501 9.9450016 10.062002 9.9450016zm16.340999-.4875v-10.3545017c0-2.8470005 1.813501-4.2705007 3.997501-4.2705007 2.3205 0 3.685501 1.5015002 3.685501 4.2315007v10.3935017h5.0895v-12.031502c0-4.3875007-3.0615-7.3710012-7.351501-7.3710012-2.067 0-4.075501.6630001-5.421001 2.5350004v-11.2320018h-5.089501v28.0995046z" fill="#fff"/><path d="m215.971004 253v-5.089501h-14.430003v-22.210503h-5.4405v27.300004zm11.992498.4875c3.1785 0 5.908501-.897 8.053501-2.8665l-2.9835-3.276001c-1.365001 1.1505-3.139501 1.8135-4.777501 1.8135-2.3985 0-4.309501-1.1895-4.855501-3.9195h13.396502c.0585-.429.0975-1.131.0975-1.716001-.0195-5.889001-3.744-9.925501-9.184501-9.925501-5.655001 0-9.555002 4.056-9.555002 10.003501s4.017001 9.886502 9.808502 9.886502zm3.822-11.719502h-8.365501c.4485-2.34 1.8525-3.783 4.251001-3.783 2.184 0 3.6465 1.365 4.1145 3.783zm16.2045 11.719502c5.4795 0 8.677501-2.5155 8.677501-6.415501 0-3.198-2.2815-5.031001-6.376501-5.655001l-1.677-.2535c-1.716001-.2535-3.081001-.5265-3.081001-1.6185 0-1.0335.975-1.716 2.905501-1.716 2.1255.0195 4.524.7995 6.025501 1.5405l1.716-3.958501c-2.5155-1.2285-4.875001-1.794-7.897501-1.794-4.972501 0-7.975502 2.301-7.975502 6.181501 0 3.2175 2.164501 5.128501 6.532501 5.733001l1.540501.2145c2.184.312 3.1395.819 3.1395 1.7355 0 1.1115-1.131 1.7745-3.4905 1.7745-2.847001 0-4.816501-.78-6.435001-1.8525l-2.008501 3.861001c2.457001 1.7355 5.830501 2.223 8.404502 2.223zm21.2745 0c3.1785 0 5.908501-.897 8.053501-2.8665l-2.9835-3.276001c-1.365001 1.1505-3.139501 1.8135-4.777501 1.8135-2.3985 0-4.309501-1.1895-4.855501-3.9195h13.396502c.0585-.429.0975-1.131.0975-1.716001-.0195-5.889001-3.744-9.925501-9.184501-9.925501-5.655001 0-9.555002 4.056-9.555002 10.003501s4.017001 9.886502 9.808502 9.886502zm3.822-11.719502h-8.365501c.4485-2.34 1.8525-3.783 4.251001-3.783 2.184 0 3.6465 1.365 4.1145 3.783zm14.351999 11.232002v-10.296002c0-2.808 1.618501-4.251 3.978001-4.251 1.0335 0 2.2425.234 3.081.6045l.760501-5.050501c-.702001-.2535-1.560001-.4095-2.652001-.4095-2.3205 0-4.134001.7995-5.323501 2.574v-2.067h-4.933501v18.895503z" fill="#fff"/><path d="m137.939001 506c2.808001 0 4.617001-1.062 4.617001-3.519001 0-1.539-.882-2.538-2.079-2.97 1.071-.414 1.8-1.386 1.8-2.763001 0-2.421-1.935-3.348-4.590001-3.348h-4.878001v12.600002zm-.297-7.119001h-3.249v-3.996001h3.231c1.665 0 2.997001.378 2.997001 1.980001 0 1.647-1.314001 2.016-2.979001 2.016zm.225 5.634001h-3.474v-4.158001h3.474c1.818 0 3.024001.45 3.024001 2.061 0 1.638001-1.206001 2.097001-3.024001 2.097001zm11.196 1.665c2.592 0 4.527001-1.917 4.527001-4.455001 0-2.538-1.935001-4.455-4.527001-4.455-2.592001 0-4.518001 1.917-4.518001 4.455 0 2.538001 1.926 4.455001 4.518001 4.455001zm0-1.377c-1.719 0-3.015001-1.287-3.015001-3.078001 0-1.791 1.296001-3.069 3.015001-3.069 1.71 0 3.015 1.278 3.015 3.069 0 1.791001-1.305 3.078001-3.015 3.078001zm10.809 1.377c2.043 0 3.897001-1.179 3.897001-3.762001v-4.968h-1.476001v4.833c0 1.746001-1.035 2.520001-2.421 2.520001-1.395 0-2.430001-.774-2.430001-2.520001v-4.833h-1.476v4.968c0 2.583001 1.845001 3.762001 3.906001 3.762001zm8.387999-.18v-4.797001c0-1.593 1.152001-2.538 2.529001-2.538 1.485 0 2.349.927 2.349 2.502v4.833001h1.476001v-5.310001c0-2.052-1.458001-3.42-3.564001-3.42-.99 0-2.097.333-2.799001 1.296v-1.116h-1.458v8.550001zm13.005001.18c1.341 0 2.34-.522 3.015-1.323v1.143h1.476001v-12.960002h-1.476001v5.562001c-.675-.81-1.674-1.332-3.015-1.332-2.403001 0-4.275001 1.872-4.275001 4.455 0 2.583001 1.872 4.455001 4.275001 4.455001zm.171-1.377c-1.755 0-2.943001-1.377-2.943001-3.078001 0-1.701 1.161001-3.069 2.943001-3.069 1.728 0 2.934 1.323 2.934 3.069 0 1.755001-1.206 3.078001-2.934 3.078001zm11.124 1.377c1.26 0 2.448-.306 3.51-1.296l-.783-1.008c-.729.63-1.638 1.017-2.637 1.017-1.467 0-2.700001-.873-2.907001-2.646001h6.723002c.009-.162.027-.36.027-.549-.018-2.619-1.692001-4.428-4.023001-4.428-2.457001 0-4.248001 1.827-4.248001 4.455 0 2.664001 1.8 4.455001 4.338001 4.455001zm2.43-5.121001h-5.229001c.225-1.458 1.170001-2.484 2.682001-2.484 1.386 0 2.367.972 2.547 2.484zm7.596 5.121001c1.341 0 2.34-.522 3.015-1.323v1.143h1.476001v-12.960002h-1.476001v5.562001c-.675-.81-1.674-1.332-3.015-1.332-2.403001 0-4.275001 1.872-4.275001 4.455 0 2.583001 1.872 4.455001 4.275001 4.455001zm.171-1.377c-1.755 0-2.943001-1.377-2.943001-3.078001 0-1.701 1.161001-3.069 2.943001-3.069 1.728 0 2.934 1.323 2.934 3.069 0 1.755001-1.206 3.078001-2.934 3.078001zm18.297 1.386c2.178001 0 4.059001-.972 5.121001-2.547l-1.296-.945001c-.828 1.233001-2.205 1.971001-3.825001 1.971001-2.772 0-4.869001-2.007001-4.869001-4.968001 0-2.961001 2.097001-4.968001 4.869001-4.968001 1.629001 0 3.015001.765 3.834001 1.98l1.323-.891c-.99-1.62-2.952-2.61-5.157001-2.61-3.78 0-6.525001 2.718-6.525001 6.489001s2.745001 6.489001 6.525001 6.489001zm11.439-.009c2.592 0 4.527001-1.917 4.527001-4.455001 0-2.538-1.935001-4.455-4.527001-4.455-2.592001 0-4.518001 1.917-4.518001 4.455 0 2.538001 1.926 4.455001 4.518001 4.455001zm0-1.377c-1.719 0-3.015001-1.287-3.015001-3.078001 0-1.791 1.296001-3.069 3.015001-3.069 1.71 0 3.015 1.278 3.015 3.069 0 1.791001-1.305 3.078001-3.015 3.078001zm8.459999 1.197v-4.797001c0-1.593 1.152001-2.538 2.529001-2.538 1.485 0 2.349.927 2.349 2.502v4.833001h1.476001v-5.310001c0-2.052-1.458001-3.42-3.564001-3.42-.99 0-2.097.333-2.799001 1.296v-1.116h-1.458v8.550001zm12.960001.18c1.053 0 1.908-.369 2.565-.846l-.693-1.107c-.486.333-1.116.576-1.746.576-.927 0-1.611-.558-1.611-1.845v-4.167001h3.591v-1.341h-3.591v-2.682001h-1.476001v2.682001h-1.827v1.341h1.827v4.194001c0 2.178 1.107001 3.195 2.961001 3.195zm8.136 0c1.26 0 2.448-.306 3.51-1.296l-.783-1.008c-.729.63-1.638 1.017-2.637 1.017-1.467 0-2.700001-.873-2.907001-2.646001h6.723002c.009-.162.027-.36.027-.549-.018-2.619-1.692001-4.428-4.023001-4.428-2.457001 0-4.248001 1.827-4.248001 4.455 0 2.664001 1.8 4.455001 4.338001 4.455001zm2.43-5.121001h-5.229001c.225-1.458 1.170001-2.484 2.682001-2.484 1.386 0 2.367.972 2.547 2.484zm4.103999 4.941001 2.538001-3.285001 2.574 3.285001h1.809l-3.384-4.383001 3.294-4.167h-1.737l-2.475 3.159-2.457001-3.159h-1.8l3.294001 4.185-3.375001 4.365001zm12.492001.18c1.053 0 1.908-.369 2.565-.846l-.693-1.107c-.486.333-1.116.576-1.746.576-.927 0-1.611-.558-1.611-1.845v-4.167001h3.591v-1.341h-3.591v-2.682001h-1.476001v2.682001h-1.827v1.341h1.827v4.194001c0 2.178 1.107001 3.195 2.961001 3.195zm-90.386999 28.82v-3.132001h-8.880001v-13.668002h-3.348001v16.800003zm7.379999.3c1.956 0 3.636001-.552 4.956001-1.764l-1.836-2.016001c-.84.708001-1.932001 1.116001-2.940001 1.116001-1.476 0-2.652-.732001-2.988-2.412001h8.244001c.036-.264.06-.696.06-1.056-.012-3.624001-2.304-6.108001-5.652001-6.108001-3.48 0-5.880001 2.496-5.880001 6.156001s2.472001 6.084001 6.036001 6.084001zm2.352001-7.212001h-5.148001c.276-1.44 1.14-2.328001 2.616-2.328001 1.344 0 2.244.840001 2.532001 2.328001zm7.247999-6.528001c1.128 0 2.004-.864 2.004-1.992001 0-1.128-.876-2.016-2.004-2.016-1.128001 0-1.992001.888-1.992001 2.016 0 1.128001.864 1.992001 1.992001 1.992001zm1.584 13.440002v-11.628002h-3.132001v11.628002zm6.42 0v-6.372001c0-1.752 1.116-2.628 2.46-2.628 1.428 0 2.268001.924 2.268001 2.604v6.396001h3.132v-7.404001c0-2.700001-1.884-4.536001-4.524001-4.536001-1.272 0-2.508.408-3.336 1.56v-6.912001h-3.132001v17.292003zm16.368.3c1.956 0 3.636001-.552 4.956001-1.764l-1.836-2.016001c-.84.708001-1.932001 1.116001-2.940001 1.116001-1.476 0-2.652-.732001-2.988-2.412001h8.244001c.036-.264.06-.696.06-1.056-.012-3.624001-2.304-6.108001-5.652001-6.108001-3.48 0-5.880001 2.496-5.880001 6.156001s2.472001 6.084001 6.036001 6.084001zm2.352001-7.212001h-5.148001c.276-1.44 1.14-2.328001 2.616-2.328001 1.344 0 2.244.840001 2.532001 2.328001z" fill="#ff4d67"/><path d="m139.971004 399v-5.089501h-14.430003v-22.210503h-5.4405v27.300004zm11.992498.4875c3.1785 0 5.908501-.897 8.053501-2.8665l-2.9835-3.276001c-1.365001 1.1505-3.139501 1.8135-4.777501 1.8135-2.3985 0-4.309501-1.1895-4.855501-3.9195h13.396502c.0585-.429.0975-1.131.0975-1.716001-.0195-5.889001-3.744-9.925501-9.184501-9.925501-5.655001 0-9.555002 4.056-9.555002 10.003501s4.017001 9.886502 9.808502 9.886502zm3.822-11.719502h-8.365501c.4485-2.34 1.8525-3.783 4.251001-3.783 2.184 0 3.6465 1.365 4.1145 3.783zm11.777999-10.608002c1.833 0 3.2565-1.404 3.2565-3.237s-1.4235-3.276001-3.2565-3.276001-3.237001 1.443001-3.237001 3.276001 1.404001 3.237 3.237001 3.237zm2.574 21.840004v-18.895503h-5.089501v18.895503zm10.4325 0v-10.354502c0-2.847 1.813501-4.2705 3.997501-4.2705 2.3205 0 3.685501 1.5015 3.685501 4.2315v10.393502h5.0895v-12.031502c0-4.387501-3.0615-7.371001-7.351501-7.371001-2.067 0-4.075501.663-5.421001 2.535v-11.232002h-5.089501v28.099505zm26.598001.4875c3.1785 0 5.908501-.897 8.053501-2.8665l-2.9835-3.276001c-1.365001 1.1505-3.139501 1.8135-4.777501 1.8135-2.3985 0-4.309501-1.1895-4.855501-3.9195h13.396502c.0585-.429.0975-1.131.0975-1.716001-.0195-5.889001-3.744-9.925501-9.184501-9.925501-5.655001 0-9.555002 4.056-9.555002 10.003501s4.017001 9.886502 9.808502 9.886502zm3.822-11.719502h-8.365501c.4485-2.34 1.8525-3.783 4.251001-3.783 2.184 0 3.6465 1.365 4.1145 3.783z" fill="#fff"/></g></g><g transform="translate(670 82)"><rect fill="#fff" height="559" rx="8" stroke="#ff4d67" stroke-width="4" width="410" x="2" y="2"/><rect fill="#ff4d67" height="117" rx="8" width="268" x="35" y="34"/><rect fill="#ff4d67" height="117" rx="8" width="344" x="35" y="326"/><g fill-rule="nonzero"><path d="m131.917502 108c6.552002 0 10.276502-2.574 10.276502-7.819501 0-2.9445008-2.0475-5.2845011-4.543501-6.1230013 2.281501-.8385001 3.958501-3.0420005 3.958501-5.7915009 0-5.2065009-3.997501-7.5660013-10.354502-7.5660013h-11.154001v27.3000045zm-.7995-16.1265026h-5.577001v-6.3765011h5.557501c2.691001 0 4.836001.5850001 4.836001 3.1590005 0 2.6520005-2.106 3.2175006-4.816501 3.2175006zm.5265 11.3490016-6.103501-.0195v-6.5520009h6.103501c3.003001 0 4.894501.7020002 4.894501 3.2565006 0 2.6130003-1.8915 3.3150003-4.894501 3.3150003zm23.8095 5.265001c4.719001 0 8.931001-2.574 8.931001-8.5410013v-10.8420018h-5.07v10.3935017c0 3.0225004-1.677001 4.2510004-3.861001 4.2510004-2.2035 0-3.861001-1.2285-3.861001-4.2510004v-10.3935017h-5.089501v10.8420018c0 5.9670013 4.212001 8.5410013 8.950502 8.5410013zm23.01 0c3.159 0 5.811001-1.2675 7.585501-3.549001l-3.627-3.1005c-1.072501 1.17-2.476501 1.911-4.114501 1.911-2.632501 0-4.719001-2.0475-4.719001-5.2065006 0-3.1395005 2.106-5.2065008 4.738501-5.2065008 1.6575 0 2.886.6630001 4.036501 1.8915003l3.666-3.0615005c-1.7355-2.2815004-4.407001-3.5685006-7.566001-3.5685006-6.025501 0-10.062002 4.2315007-10.062002 9.9450016 0 5.7330006 4.036501 9.9450016 10.062002 9.9450016zm16.340999-.4875v-10.3545017c0-2.8470005 1.813501-4.2705007 3.997501-4.2705007 2.3205 0 3.685501 1.5015002 3.685501 4.2315007v10.3935017h5.0895v-12.031502c0-4.3875007-3.0615-7.3710012-7.351501-7.3710012-2.067 0-4.075501.6630001-5.421001 2.5350004v-11.2320018h-5.089501v28.0995046z" fill="#fff"/><path d="m137.939001 506c2.808001 0 4.617001-1.062 4.617001-3.519001 0-1.539-.882-2.538-2.079-2.97 1.071-.414 1.8-1.386 1.8-2.763001 0-2.421-1.935-3.348-4.590001-3.348h-4.878001v12.600002zm-.297-7.119001h-3.249v-3.996001h3.231c1.665 0 2.997001.378 2.997001 1.980001 0 1.647-1.314001 2.016-2.979001 2.016zm.225 5.634001h-3.474v-4.158001h3.474c1.818 0 3.024001.45 3.024001 2.061 0 1.638001-1.206001 2.097001-3.024001 2.097001zm11.196 1.665c2.592 0 4.527001-1.917 4.527001-4.455001 0-2.538-1.935001-4.455-4.527001-4.455-2.592001 0-4.518001 1.917-4.518001 4.455 0 2.538001 1.926 4.455001 4.518001 4.455001zm0-1.377c-1.719 0-3.015001-1.287-3.015001-3.078001 0-1.791 1.296001-3.069 3.015001-3.069 1.71 0 3.015 1.278 3.015 3.069 0 1.791001-1.305 3.078001-3.015 3.078001zm10.809 1.377c2.043 0 3.897001-1.179 3.897001-3.762001v-4.968h-1.476001v4.833c0 1.746001-1.035 2.520001-2.421 2.520001-1.395 0-2.430001-.774-2.430001-2.520001v-4.833h-1.476v4.968c0 2.583001 1.845001 3.762001 3.906001 3.762001zm8.387999-.18v-4.797001c0-1.593 1.152001-2.538 2.529001-2.538 1.485 0 2.349.927 2.349 2.502v4.833001h1.476001v-5.310001c0-2.052-1.458001-3.42-3.564001-3.42-.99 0-2.097.333-2.799001 1.296v-1.116h-1.458v8.550001zm13.005001.18c1.341 0 2.34-.522 3.015-1.323v1.143h1.476001v-12.960002h-1.476001v5.562001c-.675-.81-1.674-1.332-3.015-1.332-2.403001 0-4.275001 1.872-4.275001 4.455 0 2.583001 1.872 4.455001 4.275001 4.455001zm.171-1.377c-1.755 0-2.943001-1.377-2.943001-3.078001 0-1.701 1.161001-3.069 2.943001-3.069 1.728 0 2.934 1.323 2.934 3.069 0 1.755001-1.206 3.078001-2.934 3.078001zm11.124 1.377c1.26 0 2.448-.306 3.51-1.296l-.783-1.008c-.729.63-1.638 1.017-2.637 1.017-1.467 0-2.700001-.873-2.907001-2.646001h6.723002c.009-.162.027-.36.027-.549-.018-2.619-1.692001-4.428-4.023001-4.428-2.457001 0-4.248001 1.827-4.248001 4.455 0 2.664001 1.8 4.455001 4.338001 4.455001zm2.43-5.121001h-5.229001c.225-1.458 1.170001-2.484 2.682001-2.484 1.386 0 2.367.972 2.547 2.484zm7.596 5.121001c1.341 0 2.34-.522 3.015-1.323v1.143h1.476001v-12.960002h-1.476001v5.562001c-.675-.81-1.674-1.332-3.015-1.332-2.403001 0-4.275001 1.872-4.275001 4.455 0 2.583001 1.872 4.455001 4.275001 4.455001zm.171-1.377c-1.755 0-2.943001-1.377-2.943001-3.078001 0-1.701 1.161001-3.069 2.943001-3.069 1.728 0 2.934 1.323 2.934 3.069 0 1.755001-1.206 3.078001-2.934 3.078001zm18.297 1.386c2.178001 0 4.059001-.972 5.121001-2.547l-1.296-.945001c-.828 1.233001-2.205 1.971001-3.825001 1.971001-2.772 0-4.869001-2.007001-4.869001-4.968001 0-2.961001 2.097001-4.968001 4.869001-4.968001 1.629001 0 3.015001.765 3.834001 1.98l1.323-.891c-.99-1.62-2.952-2.61-5.157001-2.61-3.78 0-6.525001 2.718-6.525001 6.489001s2.745001 6.489001 6.525001 6.489001zm11.439-.009c2.592 0 4.527001-1.917 4.527001-4.455001 0-2.538-1.935001-4.455-4.527001-4.455-2.592001 0-4.518001 1.917-4.518001 4.455 0 2.538001 1.926 4.455001 4.518001 4.455001zm0-1.377c-1.719 0-3.015001-1.287-3.015001-3.078001 0-1.791 1.296001-3.069 3.015001-3.069 1.71 0 3.015 1.278 3.015 3.069 0 1.791001-1.305 3.078001-3.015 3.078001zm8.459999 1.197v-4.797001c0-1.593 1.152001-2.538 2.529001-2.538 1.485 0 2.349.927 2.349 2.502v4.833001h1.476001v-5.310001c0-2.052-1.458001-3.42-3.564001-3.42-.99 0-2.097.333-2.799001 1.296v-1.116h-1.458v8.550001zm12.960001.18c1.053 0 1.908-.369 2.565-.846l-.693-1.107c-.486.333-1.116.576-1.746.576-.927 0-1.611-.558-1.611-1.845v-4.167001h3.591v-1.341h-3.591v-2.682001h-1.476001v2.682001h-1.827v1.341h1.827v4.194001c0 2.178 1.107001 3.195 2.961001 3.195zm8.136 0c1.26 0 2.448-.306 3.51-1.296l-.783-1.008c-.729.63-1.638 1.017-2.637 1.017-1.467 0-2.700001-.873-2.907001-2.646001h6.723002c.009-.162.027-.36.027-.549-.018-2.619-1.692001-4.428-4.023001-4.428-2.457001 0-4.248001 1.827-4.248001 4.455 0 2.664001 1.8 4.455001 4.338001 4.455001zm2.43-5.121001h-5.229001c.225-1.458 1.170001-2.484 2.682001-2.484 1.386 0 2.367.972 2.547 2.484zm4.103999 4.941001 2.538001-3.285001 2.574 3.285001h1.809l-3.384-4.383001 3.294-4.167h-1.737l-2.475 3.159-2.457001-3.159h-1.8l3.294001 4.185-3.375001 4.365001zm12.492001.18c1.053 0 1.908-.369 2.565-.846l-.693-1.107c-.486.333-1.116.576-1.746.576-.927 0-1.611-.558-1.611-1.845v-4.167001h3.591v-1.341h-3.591v-2.682001h-1.476001v2.682001h-1.827v1.341h1.827v4.194001c0 2.178 1.107001 3.195 2.961001 3.195zm-100.497 29.12c3.612001 0 6.876001-1.764 6.876001-5.472001 0-2.928-2.352-4.212001-5.352-4.704001l-.948001-.156c-2.016-.336-3.468-.708-3.468-1.944 0-1.272 1.332-2.016 3.216-2.016 1.836001 0 3.444001.612 4.764001 1.428l1.584-2.736001c-2.112-1.26-4.068-1.788-6.420001-1.788-3.576 0-6.696001 1.824-6.696001 5.328001 0 3.036001 2.160001 4.344001 5.124001 4.812001l1.068.168c2.340001.372 3.564001.804 3.564001 1.968 0 1.296-1.44 2.028001-3.300001 2.028001-2.16 0-4.14-.840001-5.352001-1.812001l-1.74 2.700001c1.8 1.452 4.536001 2.196 7.080001 2.196zm15.072 0c2.904001 0 5.496001-1.584 5.496001-5.256001v-6.672001h-3.12v6.396001c0 1.86-1.032001 2.616001-2.376001 2.616001-1.356 0-2.376-.756001-2.376-2.616001v-6.396001h-3.132001v6.672001c0 3.672001 2.592001 5.256001 5.508001 5.256001zm14.16 0c1.944 0 3.576001-.78 4.668001-2.184l-2.232-1.908001c-.660001.72-1.524001 1.176001-2.532001 1.176001-1.62 0-2.904-1.260001-2.904-3.204001 0-1.932 1.296-3.204 2.916-3.204 1.02 0 1.776.408 2.484001 1.164l2.256-1.884001c-1.068-1.404-2.712001-2.196-4.656001-2.196-3.708 0-6.192001 2.604-6.192001 6.120001 0 3.528001 2.484001 6.120001 6.192001 6.120001zm10.056-.3v-6.372001c0-1.752 1.116-2.628 2.46-2.628 1.428 0 2.268001.924 2.268001 2.604v6.396001h3.132v-7.404001c0-2.700001-1.884-4.536001-4.524001-4.536001-1.272 0-2.508.408-3.336 1.56v-6.912001h-3.132001v17.292003zm16.368.3c1.956 0 3.636001-.552 4.956001-1.764l-1.836-2.016001c-.84.708001-1.932001 1.116001-2.940001 1.116001-1.476 0-2.652-.732001-2.988-2.412001h8.244001c.036-.264.06-.696.06-1.056-.012-3.624001-2.304-6.108001-5.652001-6.108001-3.48 0-5.880001 2.496-5.880001 6.156001s2.472001 6.084001 6.036001 6.084001zm2.352001-7.212001h-5.148001c.276-1.44 1.14-2.328001 2.616-2.328001 1.344 0 2.244.840001 2.532001 2.328001z" fill="#ff4d67"/><path d="m100.357502 400.4875c5.869501 0 11.173502-2.8665 11.173502-8.892001 0-4.758001-3.822001-6.844501-8.697001-7.644002l-1.540501-.2535c-3.2760002-.546-5.6355006-1.1505-5.6355006-3.159 0-2.067001 2.1645004-3.276001 5.2260006-3.276001 2.983501 0 5.596501.9945 7.741502 2.320501l2.574-4.446001c-3.432001-2.0475-6.610501-2.905501-10.432502-2.905501-5.8110007 0-10.8810015 2.964001-10.8810015 8.658002 0 4.933501 3.5100005 7.059001 8.3265013 7.819501l1.7355003.273c3.8025009.6045 5.7915009 1.3065 5.7915009 3.198001 0 2.106-2.34 3.2955-5.362501 3.2955-3.5100004 0-6.7275009-1.365-8.6970012-2.9445l-2.8275005 4.3875c2.9250005 2.359501 7.3710012 3.568501 11.5050017 3.568501zm24.492 0c4.719001 0 8.931001-2.574 8.931001-8.541001v-10.842002h-5.07v10.393502c0 3.0225-1.677001 4.251-3.861001 4.251-2.2035 0-3.861001-1.2285-3.861001-4.251v-10.393502h-5.089501v10.842002c0 5.967001 4.212001 8.541001 8.950502 8.541001zm23.01 0c3.159 0 5.811001-1.2675 7.585501-3.549001l-3.627-3.1005c-1.072501 1.17-2.476501 1.911-4.114501 1.911-2.632501 0-4.719001-2.0475-4.719001-5.206501 0-3.1395 2.106-5.2065 4.738501-5.2065 1.6575 0 2.886.663 4.036501 1.8915l3.666-3.061501c-1.7355-2.2815-4.407001-3.5685-7.566001-3.5685-6.025501 0-10.062002 4.231501-10.062002 9.945001 0 5.733001 4.036501 9.945002 10.062002 9.945002zm16.340999-.4875v-10.354502c0-2.847 1.813501-4.2705 3.997501-4.2705 2.3205 0 3.685501 1.5015 3.685501 4.2315v10.393502h5.0895v-12.031502c0-4.387501-3.0615-7.371001-7.351501-7.371001-2.067 0-4.075501.663-5.421001 2.535v-11.232002h-5.089501v28.099505zm26.598001.4875c3.1785 0 5.908501-.897 8.053501-2.8665l-2.9835-3.276001c-1.365001 1.1505-3.139501 1.8135-4.777501 1.8135-2.3985 0-4.309501-1.1895-4.855501-3.9195h13.396502c.0585-.429.0975-1.131.0975-1.716001-.0195-5.889001-3.744-9.925501-9.184501-9.925501-5.655001 0-9.555002 4.056-9.555002 10.003501s4.017001 9.886502 9.808502 9.886502zm3.822-11.719502h-8.365501c.4485-2.34 1.8525-3.783 4.251001-3.783 2.184 0 3.6465 1.365 4.1145 3.783zm14.351999 11.232002v-10.296002c0-2.808 1.618501-4.251 3.978001-4.251 1.0335 0 2.2425.234 3.081.6045l.760501-5.050501c-.702001-.2535-1.560001-.4095-2.652001-.4095-2.3205 0-4.134001.7995-5.323501 2.574v-2.067h-4.933501v18.895503zm18.817501 8.170501c6.240001 0 10.198501-3.666 10.198501-9.730501v-17.335503h-4.992v2.106c-1.287001-1.599-3.217501-2.613-5.850001-2.613-4.602001 0-8.697002 3.8415-8.697002 9.652501 0 5.791501 4.095001 9.633002 8.697002 9.633002 2.613 0 4.524-.975 5.811001-2.5545v1.326c0 3.2565-2.223001 5.011501-5.382001 5.011501-2.262001 0-4.348501-.682501-6.240001-1.930501l-1.813501 4.153501c2.125501 1.5015 5.284501 2.2815 8.268002 2.2815zm.6435-12.967502c-2.905501 0-4.758001-2.223-4.758001-4.953001 0-2.7495 1.8525-4.9725 4.758001-4.9725 2.8275 0 4.738501 2.145 4.738501 4.9725 0 2.808001-1.911001 4.953001-4.738501 4.953001zm23.5365 5.284501c3.1785 0 5.908501-.897 8.053501-2.8665l-2.9835-3.276001c-1.365001 1.1505-3.139501 1.8135-4.777501 1.8135-2.3985 0-4.309501-1.1895-4.855501-3.9195h13.396502c.0585-.429.0975-1.131.0975-1.716001-.0195-5.889001-3.744-9.925501-9.184501-9.925501-5.655001 0-9.555002 4.056-9.555002 10.003501s4.017001 9.886502 9.808502 9.886502zm3.822-11.719502h-8.365501c.4485-2.34 1.8525-3.783 4.251001-3.783 2.184 0 3.6465 1.365 4.1145 3.783zm19.89 11.719502c5.206501 0 9.145502-4.270501 9.145502-9.945002 0-5.6745-3.939001-9.945001-9.165002-9.945001-2.535 0-4.309501.9945-5.538001 2.4765v-11.154002h-5.070001v28.080005h4.972501v-2.0865c1.2285 1.521 3.042001 2.574 5.655001 2.574zm-.9555-4.738501c-2.886 0-4.855501-2.223-4.855501-5.206501 0-2.9835 1.969501-5.2065 4.855501-5.2065 3.003001 0 4.875001 2.3205 4.875001 5.2065 0 2.886001-1.872 5.206501-4.875001 5.206501zm19.343999 4.251001v-10.354502c0-2.847 1.813501-4.2705 3.997501-4.2705 2.3205 0 3.685501 1.5015 3.685501 4.2315v10.393502h5.0895v-12.031502c0-4.387501-3.0615-7.371001-7.351501-7.371001-2.145 0-4.212001.7215-5.557501 2.73v-2.223h-4.953001v18.895503zm20.475-21.840004c1.833 0 3.2565-1.404 3.2565-3.237s-1.4235-3.276001-3.2565-3.276001-3.237001 1.443001-3.237001 3.276001 1.404001 3.237 3.237001 3.237zm2.574 21.840004v-18.895503h-5.089501v18.895503zm12.421501.4875c5.4795 0 8.677501-2.5155 8.677501-6.415501 0-3.198-2.2815-5.031001-6.376501-5.655001l-1.677-.2535c-1.716001-.2535-3.081001-.5265-3.081001-1.6185 0-1.0335.975-1.716 2.905501-1.716 2.1255.0195 4.524.7995 6.025501 1.5405l1.716-3.958501c-2.5155-1.2285-4.875001-1.794-7.897501-1.794-4.972501 0-7.975502 2.301-7.975502 6.181501 0 3.2175 2.164501 5.128501 6.532501 5.733001l1.540501.2145c2.184.312 3.1395.819 3.1395 1.7355 0 1.1115-1.131 1.7745-3.4905 1.7745-2.847001 0-4.816501-.78-6.435001-1.8525l-2.008501 3.861001c2.457001 1.7355 5.830501 2.223 8.404502 2.223z" fill="#fff"/></g></g></g></svg>